<svg viewBox="0 0 1707.2222900390625 400.0000305175781" xmlns="http://www.w3.org/2000/svg"><g><g><g><g><g><line x1="59.84375" y1="373" x2="54.84375" y2="373" style="visibility: inherit;" fill="rgb(0, 0, 0)" stroke="rgb(204, 204, 204)" stroke-width="1px"></line><line x1="59.84375" y1="344.3076923076923" x2="54.84375" y2="344.3076923076923" style="visibility: inherit;" fill="rgb(0, 0, 0)" stroke="rgb(204, 204, 204)" stroke-width="1px"></line><line x1="59.84375" y1="315.6153846153846" x2="54.84375" y2="315.6153846153846" style="visibility: inherit;" fill="rgb(0, 0, 0)" stroke="rgb(204, 204, 204)" stroke-width="1px"></line><line x1="59.84375" y1="286.9230769230769" x2="54.84375" y2="286.9230769230769" style="visibility: inherit;" fill="rgb(0, 0, 0)" stroke="rgb(204, 204, 204)" stroke-width="1px"></line><line x1="59.84375" y1="258.2307692307692" x2="54.84375" y2="258.2307692307692" style="visibility: inherit;" fill="rgb(0, 0, 0)" stroke="rgb(204, 204, 204)" stroke-width="1px"></line><line x1="59.84375" y1="229.53846153846155" x2="54.84375" y2="229.53846153846155" style="visibility: inherit;" fill="rgb(0, 0, 0)" stroke="rgb(204, 204, 204)" stroke-width="1px"></line><line x1="59.84375" y1="200.84615384615387" x2="54.84375" y2="200.84615384615387" style="visibility: inherit;" fill="rgb(0, 0, 0)" stroke="rgb(204, 204, 204)" stroke-width="1px"></line><line x1="59.84375" y1="172.15384615384616" x2="54.84375" y2="172.15384615384616" style="visibility: inherit;" fill="rgb(0, 0, 0)" stroke="rgb(204, 204, 204)" stroke-width="1px"></line><line x1="59.84375" y1="143.46153846153848" x2="54.84375" y2="143.46153846153848" style="visibility: inherit;" fill="rgb(0, 0, 0)" stroke="rgb(204, 204, 204)" stroke-width="1px"></line><line x1="59.84375" y1="114.76923076923077" x2="54.84375" y2="114.76923076923077" style="visibility: inherit;" fill="rgb(0, 0, 0)" stroke="rgb(204, 204, 204)" stroke-width="1px"></line><line x1="59.84375" y1="86.07692307692311" x2="54.84375" y2="86.07692307692311" style="visibility: inherit;" fill="rgb(0, 0, 0)" stroke="rgb(204, 204, 204)" stroke-width="1px"></line><line x1="59.84375" y1="57.38461538461539" x2="54.84375" y2="57.38461538461539" style="visibility: inherit;" fill="rgb(0, 0, 0)" stroke="rgb(204, 204, 204)" stroke-width="1px"></line><line x1="59.84375" y1="28.692307692307672" x2="54.84375" y2="28.692307692307672" style="visibility: inherit;" fill="rgb(0, 0, 0)" stroke="rgb(204, 204, 204)" stroke-width="1px"></line><line x1="59.84375" y1="0" x2="54.84375" y2="0" style="visibility: inherit;" fill="rgb(0, 0, 0)" stroke="rgb(204, 204, 204)" stroke-width="1px"></line></g><g transform="translate(49.84375, 0)"><text x="0" y="373" dx="0em" dy="0.3em" style="text-anchor: end; visibility: hidden; font-family: Roboto, sans-serif; font-size: 12px; font-weight: 200;" fill="rgb(33, 33, 33)" stroke="none" stroke-width="1px">-0.05</text><text x="0" y="344.3076923076923" dx="0em" dy="0.3em" style="text-anchor: end; visibility: inherit; font-family: Roboto, sans-serif; font-size: 12px; font-weight: 200;" fill="rgb(33, 33, 33)" stroke="none" stroke-width="1px">0</text><text x="0" y="315.6153846153846" dx="0em" dy="0.3em" style="text-anchor: end; visibility: inherit; font-family: Roboto, sans-serif; font-size: 12px; font-weight: 200;" fill="rgb(33, 33, 33)" stroke="none" stroke-width="1px">0.05</text><text x="0" y="286.9230769230769" dx="0em" dy="0.3em" style="text-anchor: end; visibility: inherit; font-family: Roboto, sans-serif; font-size: 12px; font-weight: 200;" fill="rgb(33, 33, 33)" stroke="none" stroke-width="1px">0.1</text><text x="0" y="258.2307692307692" dx="0em" dy="0.3em" style="text-anchor: end; visibility: inherit; font-family: Roboto, sans-serif; font-size: 12px; font-weight: 200;" fill="rgb(33, 33, 33)" stroke="none" stroke-width="1px">0.15</text><text x="0" y="229.53846153846155" dx="0em" dy="0.3em" style="text-anchor: end; visibility: inherit; font-family: Roboto, sans-serif; font-size: 12px; font-weight: 200;" fill="rgb(33, 33, 33)" stroke="none" stroke-width="1px">0.2</text><text x="0" y="200.84615384615387" dx="0em" dy="0.3em" style="text-anchor: end; visibility: inherit; font-family: Roboto, sans-serif; font-size: 12px; font-weight: 200;" fill="rgb(33, 33, 33)" stroke="none" stroke-width="1px">0.25</text><text x="0" y="172.15384615384616" dx="0em" dy="0.3em" style="text-anchor: end; visibility: inherit; font-family: Roboto, sans-serif; font-size: 12px; font-weight: 200;" fill="rgb(33, 33, 33)" stroke="none" stroke-width="1px">0.3</text><text x="0" y="143.46153846153848" dx="0em" dy="0.3em" style="text-anchor: end; visibility: inherit; font-family: Roboto, sans-serif; font-size: 12px; font-weight: 200;" fill="rgb(33, 33, 33)" stroke="none" stroke-width="1px">0.35</text><text x="0" y="114.76923076923077" dx="0em" dy="0.3em" style="text-anchor: end; visibility: inherit; font-family: Roboto, sans-serif; font-size: 12px; font-weight: 200;" fill="rgb(33, 33, 33)" stroke="none" stroke-width="1px">0.4</text><text x="0" y="86.07692307692311" dx="0em" dy="0.3em" style="text-anchor: end; visibility: inherit; font-family: Roboto, sans-serif; font-size: 12px; font-weight: 200;" fill="rgb(33, 33, 33)" stroke="none" stroke-width="1px">0.45</text><text x="0" y="57.38461538461539" dx="0em" dy="0.3em" style="text-anchor: end; visibility: inherit; font-family: Roboto, sans-serif; font-size: 12px; font-weight: 200;" fill="rgb(33, 33, 33)" stroke="none" stroke-width="1px">0.5</text><text x="0" y="28.692307692307672" dx="0em" dy="0.3em" style="text-anchor: end; visibility: inherit; font-family: Roboto, sans-serif; font-size: 12px; font-weight: 200;" fill="rgb(33, 33, 33)" stroke="none" stroke-width="1px">0.55</text><text x="0" y="0" dx="0em" dy="0.3em" style="text-anchor: end; visibility: hidden; font-family: Roboto, sans-serif; font-size: 12px; font-weight: 200;" fill="rgb(33, 33, 33)" stroke="none" stroke-width="1px">0.6</text></g><line x1="59.84375" y1="0" x2="59.84375" y2="373" fill="rgb(0, 0, 0)" stroke="rgb(204, 204, 204)" stroke-width="1px"></line></g></g><g transform="translate(59, 0)" clip-path="url(#clip_0)"><clipPath id="clip_0"><rect width="1647" height="372"></rect></clipPath><g><g><g><line x1="0" y1="0" x2="0" y2="373" fill="rgb(0, 0, 0)" stroke="rgb(66, 66, 66)" stroke-width="1px" opacity="0.25"></line><line x1="137.28135416666666" y1="0" x2="137.28135416666666" y2="373" fill="rgb(0, 0, 0)" stroke="rgb(66, 66, 66)" stroke-width="1px" opacity="0.25"></line><line x1="274.5627083333333" y1="0" x2="274.5627083333333" y2="373" fill="rgb(0, 0, 0)" stroke="rgb(66, 66, 66)" stroke-width="1px" opacity="0.25"></line><line x1="411.8440625" y1="0" x2="411.8440625" y2="373" fill="rgb(0, 0, 0)" stroke="rgb(66, 66, 66)" stroke-width="1px" opacity="0.25"></line><line x1="549.1254166666666" y1="0" x2="549.1254166666666" y2="373" fill="rgb(0, 0, 0)" stroke="rgb(66, 66, 66)" stroke-width="1px" opacity="0.25"></line><line x1="686.4067708333333" y1="0" x2="686.4067708333333" y2="373" fill="rgb(0, 0, 0)" stroke="rgb(66, 66, 66)" stroke-width="1px" opacity="0.25"></line><line x1="823.688125" y1="0" x2="823.688125" y2="373" fill="rgb(0, 0, 0)" stroke="rgb(66, 66, 66)" stroke-width="1px" opacity="0.25"></line><line x1="960.9694791666667" y1="0" x2="960.9694791666667" y2="373" fill="rgb(0, 0, 0)" stroke="rgb(66, 66, 66)" stroke-width="1px" opacity="0.25"></line><line x1="1098.2508333333333" y1="0" x2="1098.2508333333333" y2="373" fill="rgb(0, 0, 0)" stroke="rgb(66, 66, 66)" stroke-width="1px" opacity="0.25"></line><line x1="1235.5321875" y1="0" x2="1235.5321875" y2="373" fill="rgb(0, 0, 0)" stroke="rgb(66, 66, 66)" stroke-width="1px" opacity="0.25"></line><line x1="1372.8135416666667" y1="0" x2="1372.8135416666667" y2="373" fill="rgb(0, 0, 0)" stroke="rgb(66, 66, 66)" stroke-width="1px" opacity="0.25"></line><line x1="1510.0948958333333" y1="0" x2="1510.0948958333333" y2="373" fill="rgb(0, 0, 0)" stroke="rgb(66, 66, 66)" stroke-width="1px" opacity="0.25"></line><line x1="1647.37625" y1="0" x2="1647.37625" y2="373" fill="rgb(0, 0, 0)" stroke="rgb(66, 66, 66)" stroke-width="1px" opacity="0.25"></line></g><g><line x1="0" y1="373" x2="1647.37625" y2="373" fill="rgb(0, 0, 0)" stroke="rgb(66, 66, 66)" stroke-width="1px" opacity="0.25"></line><line x1="0" y1="344.3076923076923" x2="1647.37625" y2="344.3076923076923" fill="rgb(0, 0, 0)" stroke="rgb(66, 66, 66)" stroke-width="1px" opacity="0.25"></line><line x1="0" y1="315.6153846153846" x2="1647.37625" y2="315.6153846153846" fill="rgb(0, 0, 0)" stroke="rgb(66, 66, 66)" stroke-width="1px" opacity="0.25"></line><line x1="0" y1="286.9230769230769" x2="1647.37625" y2="286.9230769230769" fill="rgb(0, 0, 0)" stroke="rgb(66, 66, 66)" stroke-width="1px" opacity="0.25"></line><line x1="0" y1="258.2307692307692" x2="1647.37625" y2="258.2307692307692" fill="rgb(0, 0, 0)" stroke="rgb(66, 66, 66)" stroke-width="1px" opacity="0.25"></line><line x1="0" y1="229.53846153846155" x2="1647.37625" y2="229.53846153846155" fill="rgb(0, 0, 0)" stroke="rgb(66, 66, 66)" stroke-width="1px" opacity="0.25"></line><line x1="0" y1="200.84615384615387" x2="1647.37625" y2="200.84615384615387" fill="rgb(0, 0, 0)" stroke="rgb(66, 66, 66)" stroke-width="1px" opacity="0.25"></line><line x1="0" y1="172.15384615384616" x2="1647.37625" y2="172.15384615384616" fill="rgb(0, 0, 0)" stroke="rgb(66, 66, 66)" stroke-width="1px" opacity="0.25"></line><line x1="0" y1="143.46153846153848" x2="1647.37625" y2="143.46153846153848" fill="rgb(0, 0, 0)" stroke="rgb(66, 66, 66)" stroke-width="1px" opacity="0.25"></line><line x1="0" y1="114.76923076923077" x2="1647.37625" y2="114.76923076923077" fill="rgb(0, 0, 0)" stroke="rgb(66, 66, 66)" stroke-width="1px" opacity="0.25"></line><line x1="0" y1="86.07692307692311" x2="1647.37625" y2="86.07692307692311" fill="rgb(0, 0, 0)" stroke="rgb(66, 66, 66)" stroke-width="1px" opacity="0.25"></line><line x1="0" y1="57.38461538461539" x2="1647.37625" y2="57.38461538461539" fill="rgb(0, 0, 0)" stroke="rgb(66, 66, 66)" stroke-width="1px" opacity="0.25"></line><line x1="0" y1="28.692307692307672" x2="1647.37625" y2="28.692307692307672" fill="rgb(0, 0, 0)" stroke="rgb(66, 66, 66)" stroke-width="1px" opacity="0.25"></line><line x1="0" y1="0" x2="1647.37625" y2="0" fill="rgb(0, 0, 0)" stroke="rgb(66, 66, 66)" stroke-width="1px" opacity="0.25"></line></g></g></g><g><g><line x1="0" y1="344.3076923076923" x2="1647.37625" y2="344.3076923076923" fill="rgb(0, 0, 0)" stroke="rgb(153, 153, 153)" stroke-width="1.5px"></line></g></g><g><g><line x1="137.28135416666666" y1="0" x2="137.28135416666666" y2="373" fill="rgb(0, 0, 0)" stroke="rgb(153, 153, 153)" stroke-width="1.5px"></line></g></g><g><g><g><g><g><path stroke="rgb(255, 112, 67)" stroke-width="2px" d="M137.831852396875,216.88461728279407L139.75379135520834,224.79549747132336L142.773981146875,203.72780068553226L143.73495062604167,184.97254250026668L145.79417093854167,172.80413574983552L146.34329635520834,161.97076819764334L147.02970312604168,202.13076142301426L147.85339125104167,228.94867028289667L148.539798021875,221.36995830366112L149.50076750104168,233.8403596637289L151.422706459375,239.58629538972684L153.2073640635417,214.40040276476233L153.893770834375,234.52148945072167L154.85474031354167,250.35482857940775L155.12930302187502,232.45915270274187L158.835899584375,253.65750758709643L159.247743646875,257.93025665989944L159.52230635520834,258.44674780992636L159.79686906354166,270.10883159509626L161.306963959375,249.10109693856603L163.366184271875,182.2077877189426L165.013560521875,229.3370315042483L165.425404584375,257.323200792351L168.03375031354167,262.79342799641455L170.367533334375,266.8717397373269L172.15219093854168,258.11993249979975L172.70131635520835,243.9541332151092L174.34869260520833,255.18854452109392L174.485973959375,271.2708866212111L175.99606885520834,267.4232874460106L176.40791291770833,264.528360754532L177.780726459375,271.0381035306534L180.11450948020834,268.4212570054077L180.93819760520833,169.58411426447506L181.76188573020832,216.79487185223078L184.78207552187502,256.5022688426994L185.88032635520833,278.9396113676508L187.11585854270834,278.5201850618544L187.39042125104166,253.16118319305426L189.03779750104167,274.6964320127462L189.17507885520834,273.909995358074L190.82245510520835,263.1803660914934L191.78342458437498,269.80138811262856L194.25448895937498,260.3633633699487L195.078177084375,269.6481778869932L197.00011604270836,285.47547597180903L197.137397396875,273.3663498545592L197.82380416770835,285.79193919835L198.23564823020834,293.95659781117973L200.432149896875,276.0230677951943L201.255838021875,291.46564138669584L202.491370209375,288.793957375374L203.0404956260417,283.28876298195195L203.315058334375,268.70413594237L204.138746459375,263.24616880154423L207.15893625104167,279.3251398371636L207.433498959375,296.11783265871065L207.5707803135417,298.642069496297L207.84534302187498,297.3613563321452L210.0418446885417,308.83479445600324L211.00281416770832,293.4219830249404L211.140095521875,300.813246624243L213.06203448020833,298.5852243384688L213.47387854270835,274.12841562515297L214.43484802187498,291.76801578453666L218.41600729270834,288.3354236966231L218.553288646875,294.8739463783968L219.51425812604168,285.08601947688L223.22085468854164,286.1525087433678L223.49541739687498,300.7720126615538L224.18182416770836,298.3715997851145L225.41735635520834,300.4432610397672L225.554637709375,298.7420240357599L227.613858021875,302.52350543322956L227.88842073020834,156.5862298612303L229.261234271875,209.2647949010527L232.28142406354166,227.54500145799906L236.12530198020835,266.40198185358184L236.53714604270837,275.3072743278643L239.28277312604166,281.547257157494L242.85208833437503,144.55674569974875L243.26393239687502,210.1783470416147L243.67577645937502,247.4851411202918L244.499464584375,276.8909798743716L245.87227812604166,292.8636912074047L246.97052895937503,209.60908503148485L247.79421708437502,238.9984835682355L248.0687797927083,256.2258094772676L250.8144068760417,265.265369430527L252.59906448020834,290.0972118441639L254.93284750104166,290.55925804118425L256.1683796885417,298.1464492401808L256.7175051052083,302.0290337158042L259.4631321885417,305.3425569552017L260.4241016677083,303.13785127599346L261.1105084385417,307.69518383530055L264.9543863552083,303.84535559344044L266.60176260520836,299.6977106709942L267.562732084375,300.7025677247031L274.2895184385417,303.2313614032882L274.8386438552084,305.74739821896566L276.07417604270836,308.04772203697286L276.34873875104165,316.8582809434193L276.623301459375,316.31265361013845L276.89786416770835,301.7596177044909L278.4079590635416,312.86208699682226L279.918053959375,306.2838966575977L282.25183698020834,306.5275258076205L283.7619318760417,315.6298502771955L284.17377593854167,314.9393531462583L284.448338646875,307.16223097559777L285.683870834375,305.0109103007136L286.37027760520834,310.73693260907777L287.0566843760417,310.60985363386015L288.2922165635417,271.94051820645205L288.70406062604167,288.31990500868426L288.84134198020837,298.3891790653898L289.93959281354165,293.0090911823659L290.214155521875,296.0362589528741L291.1751250010417,298.2081125361074L292.5479385427083,304.9266249526947L293.097063959375,301.38364387045607L294.6071588552083,248.12639442149217L295.29356562604164,260.7895171852407L295.568128334375,264.89016046500876L297.0782232302083,289.5158203926897L297.4900672927083,301.71546373107714L298.3137554177083,307.2282288268909L300.09841302187505,305.77524339576945L300.6475384385417,308.1800391671589L301.745789271875,310.9894734440762L303.9422909385417,283.09358915017543L307.511606146875,287.58277933333676L308.0607315635417,298.55245456830664L308.747138334375,302.56902906462227L308.8844196885417,311.83127543107395L309.158982396875,313.88664451658013L309.7081078135417,322.21721118938495L309.84538916770833,248.77580830008728L310.2572332302083,271.9120539725571L310.394514584375,282.4247312862586L312.5910162510417,296.2541130576952L314.7875179177083,286.3801817734769L316.0230501052083,287.61059742118994L317.807707709375,302.3346685956529L319.1805212510417,298.083457392353L322.8871178135417,311.0536942887616L323.161680521875,307.39365664128184L324.809056771875,306.5680114420782L324.94633812604167,308.7152130640603L325.08361948020837,303.8267336647407L332.35953125104163,298.37944930374186L333.869626146875,280.78791156940014L334.41875156354166,266.6658748598835L336.8898159385417,281.5570367242521L337.8507854177084,287.76850856108456L339.08631760520836,296.70093734535754L339.49816166770836,302.07809256688967L340.870975209375,312.1071344739156L342.2437887510417,310.22407356609494L342.3810701052083,310.6710092710645L343.06747687604167,311.267195464251L344.71485312604165,290.11783675111303L344.989415834375,298.1394365516262L345.26397854270834,302.74849760087835L348.284168334375,311.5642263624221L349.79426323020834,312.86126087092873L350.34338864687504,316.4840682670638L352.53989031354166,318.54918697305436L352.95173437604166,300.5205373712516L354.1872665635417,290.40953664195433L354.46182927187505,272.24479067818686L355.5600801052083,290.89306515888654L356.3837682302083,292.2328170013757L358.85483260520834,305.6459523817223L359.9530834385417,309.3891604058751L360.227646146875,312.6107334011633L362.01230375104166,307.2912643381261L365.71890031354167,311.663242664557L367.50355791770835,291.9733298818L368.73909010520833,304.21612649879296L369.70005958437497,313.46198011493624L369.8373409385417,316.6671697138489L369.9746222927083,314.8081047113292L370.523747709375,314.1267020357672L371.8965612510417,312.2964893074646L372.3084053135417,264.018927630065L378.0742221885416,282.5581264129792L379.584317084375,294.0772599170286L380.95713062604165,308.60271157721286L382.467225521875,306.7610812823107L383.290913646875,295.69892480612583L384.66372718854166,298.1682900072658L390.56682541770834,305.44298112007203L390.704106771875,301.1569130232512L390.84138812604164,297.38635377671875L390.97866948020834,304.89532229516374L395.7835168760417,208.94038528101956L395.92079823020833,256.13024587478316L396.7444863552083,280.4335245304837L397.43089312604167,280.39467546103526L397.9800185427083,298.3090717631375L399.352832084375,308.5103437391214L401.6866151052083,301.17083056860156L402.0984591677083,303.6053006911318L402.9221472927083,306.72571912972984L403.6085540635417,312.47821409032673L404.29496083437505,308.5277510766052L405.39321166770833,305.86984244443005L405.8050557302083,293.0016093854452L407.31515062604166,304.19092460163046L408.9625268760417,301.6812176484048L409.09980823020834,308.98120107841646L409.7862150010417,319.78238924945686L421.180567396875,317.28750405809916L422.69066229270834,318.23982074137894L423.7889131260416,311.18925728687543L425.16172666770836,318.1808468581418L426.25997750104165,319.25344706203083L426.80910291770834,264.36674662376L428.18191645937503,287.31415739530746L428.593760521875,303.81000800103755L430.241136771875,302.9992549993536L433.9477333343751,300.54877614660097L436.006953646875,307.8795463708178L438.478018021875,296.0369092165175L440.81180104270834,288.40585075710214L442.18461458437497,264.6512117485L444.243834896875,276.782178268512L445.067523021875,295.4586918057771L453.85352968854164,306.0214529524539L453.99081104270834,317.1038330705066L455.0890618760417,317.28887526504946L459.482065209375,319.4434713593198L462.36497364687506,316.78334544908057L464.5614753135416,322.08338291463656L465.52244479270837,317.36521228562236L466.071570209375,318.72170821351995L471.013698959375,316.7363965331598L472.3865125010417,303.9619891187232L473.34748198020833,309.44951147450325L474.720295521875,315.0468578508144L476.2303904177083,313.8023704121589L477.3286412510417,317.8859949189472L478.9760175010417,321.97054379910054L479.5251429177083,315.26591453299505L480.21154968854165,280.4798073115223L481.58436323020834,297.90573159066327L482.2707700010417,305.272953952137L483.6435835427083,314.9927860233501L486.25192927187504,313.78557901856124L489.38743540104167,311.4068559686031L490.485686234375,310.2615494628866L490.76024894270836,312.7807627742178L491.17209300520835,311.1933570573923L493.6431573802083,313.50154881528965L495.427814984375,316.62923446851295L495.83965904687506,308.2539206166658L496.5260658177083,318.44331751697206L497.6243166510417,316.8854334788269L497.7615980052083,313.3175289368524L501.33091321354163,315.35851436608857L501.88003863020833,281.8260307104769L502.017319984375,264.63444191349464L502.5664454010417,246.35350725271516L502.7037267552083,271.57466353124687L502.97828946354167,292.4482067818376L503.9392589427083,307.3393103264117L504.35110300520836,312.29258891743183L505.312072484375,273.79243031942974L506.6848860260417,290.8029277964068L507.371292796875,302.8836519528683L507.92041821354167,303.667415823021L508.3322622760417,299.18673542514307L508.46954363020836,310.45259758824255L509.01866904687506,311.1186813798886L510.52876394270834,301.8839132911216L511.2151707135417,306.960157289144L511.3524520677083,309.5374582424749L511.901577484375,309.34775935317396L512.725265609375,316.46654198315014L513.960797796875,308.5573116039778L514.0980791510417,305.1103721794811L514.784485921875,317.4688685088674L514.9217672760417,318.73330155859156L515.4708926927083,317.5774957822134L516.843706234375,307.9228189794963L518.079238421875,303.64196021333885L519.8638960260417,308.9433484470304L523.7077739427083,318.06447806468805L525.9042756093751,321.58150189731924L526.7279637343751,319.8655777325939L528.9244654010417,306.1569749821115L531.258248421875,316.9883785420452L533.0429060260416,316.32373495495926L537.0240652968749,309.3486375170286L537.2986280052083,311.71735937845415L538.671441546875,309.7852160081828L541.142505921875,317.3501292294829L542.5153194635417,320.3227204265292L542.9271635260417,306.73015647561385L543.2017262343751,306.6704751017476L545.8100719635416,318.44840833105127L547.1828855052083,297.3791781825502L548.2811363385417,311.1495847177727L552.3995769635417,320.4892453821297L554.4587972760417,310.392538918593L558.9890819635417,300.5770152447774L559.5382073802083,298.9042701386305L560.6364582135417,308.1419493864023L561.8719904010417,304.27074258524897L562.0092717552083,299.7471688064169L562.9702412343751,299.98877645794704L563.5193666510417,310.25228050371044L564.0684920677083,274.2744177007952L564.3430547760416,294.3108128855578L565.029461546875,299.03868966354486L565.1667429010416,307.0514759438296L571.0698411302084,307.1264999674915L571.4816851927084,317.2153798904468L572.1680919635418,316.7843332110177L573.4036241510416,315.7230098785726L574.7764376927083,319.6229274595837L575.737407171875,300.9698057735232L577.384783421875,302.6471555312572L577.9339088385417,301.87090278332636L578.208471546875,301.389677291947L579.1694410260417,303.36081393846575L580.267691859375,298.61139279225847L581.091379984375,309.911801731381L586.1707900885416,314.414584517264L590.8383561302084,322.77275942963763L594.682234046875,320.9974402146299L596.1923289427084,318.0107918030385L597.8397051927084,315.98742451485634L599.4870814427082,309.84716576558645L599.7616441510417,310.67230254314944L600.5853322760416,300.58517029777573L601.683583109375,271.5514316492999L602.919115296875,291.00406850410616L604.7037729010417,299.1226713081646L606.2138677968751,304.83913525373123L607.3121186302084,302.05351068496475L608.6849321718751,312.4998063364657L608.9594948802084,315.32720834772135L611.979684671875,291.6145576073044L613.9016236302084,307.1644118454964L614.038904984375,305.6819311093818L614.3134676927083,308.09081330413954L614.862593109375,255.51016855822132L615.1371558177083,286.55870360508317L616.2354066510417,300.6828683774617L618.157345609375,311.9584281914157L622.1385048802084,321.28835853198575L623.099474359375,325.9351833430035L623.2367557135417,325.20423645410324L625.8451014427084,323.59396084190973L626.3942268593751,313.7651811868138L627.3551963385416,322.1585688531051L630.100823421875,321.69628239097716L631.1990742552084,314.4223932474818L631.8854810260417,308.6199979921926L633.2582945677083,312.2282307062229L635.866640296875,314.17957384392776L636.1412030052084,296.75342808827395L637.514016546875,304.89219624383645L637.925860609375,301.2113197288073L638.2004233177083,302.4488654307908L638.8868300885417,310.5703267791685L639.4359555052084,315.70937317749457L639.8477995677083,304.1864658281564L639.985080921875,306.51812347957565L643.6916774843751,297.81546080362705L645.339053734375,302.41584119167453L645.4763350885416,302.1137766446356L647.810118109375,310.17743497020416L650.0066197760417,318.01614751611464L650.1439011302083,318.7057141462317L650.9675892552083,322.0846159625125L651.1048706093751,320.3489713791927L651.2421519635417,321.22869006675467L653.4386536302083,322.58300541385586L654.399623109375,322.7097817063696L655.0860298802083,328.46197720814104L655.7724366510416,327.165619282919L656.1842807135417,315.01062497161774L658.3807823802083,320.4400270820206L660.8518467552083,315.4403266344029L662.9110670677084,293.8351636567311L664.4211619635417,300.2658357487355L664.695724671875,306.3432466954499L665.7939755052083,312.69097589078604L669.226009359375,308.6004373651742L672.3834805052084,311.50573052711667L672.7953245677083,315.60859645087714L673.3444499843749,319.4711716311847L675.1291075885417,319.9633548479345L676.227358421875,323.9574783837514L678.5611414427084,319.61713858175426L679.110266859375,325.3689290019026L680.2085176927084,293.2124942106373L681.5813312343749,304.2610233435758L681.7186125885418,311.3832430024627L686.111615921875,314.5766244009636L686.6607413385416,309.76217900872933L686.935304046875,306.75320811963496L688.170836234375,312.2347074227395L690.3673379010417,317.8514181448827L692.4265582135416,321.09221456261565L696.2704361302084,314.23897745313883L697.0941242552084,315.20150127838866L700.8007208177083,313.2354411257233L701.0752835260417,314.17282098278645L702.8599411302083,320.3262417053664L704.5073173802083,318.6769042627687L705.056442796875,320.90202509539296L709.4494461302083,318.9179882812045L710.6849783177083,319.8860312778126L713.5678867552084,317.53175661434955L714.6661375885417,315.7462787078495L715.352544359375,301.5660554638587L717.4117646718751,308.2275632368788L718.7845782135416,315.06169476836664L719.470984984375,309.64574337348876L719.7455476927083,317.4268478125297L722.0793307135417,319.18022689686154L727.4333035260418,316.7450961613L728.6688357135416,323.075171873035L729.355242484375,324.35557197083904L730.8653373802084,326.1181137326352L735.9447474843751,324.7967702109947L736.6311542552083,326.6536073930967L738.9649372760416,253.28477954874958L739.239499984375,286.98440349429245L740.3377508177083,298.43721904492475L740.886876234375,307.52446403859636L743.0833779010417,313.4316638519496L743.2206592552084,311.1925486955812L745.829004984375,309.8423209118798L746.652693109375,295.3898918521561L748.9864761302084,298.55951543036815L749.947445609375,306.54414894901254L752.1439472760417,302.8437408664561L752.9676354010417,313.3389979259949L758.0470455052083,321.34767493577255L758.4588895677083,326.1757832154076L759.008014984375,318.8272114185083L763.4010183177083,323.5474152990884L763.538299671875,326.5484377492995L763.8128623802083,307.14389943684023L768.2058657135417,314.8370994161475L768.480428421875,323.9784285204998L769.0295538385417,279.00345124880204L773.422557171875,297.3877338258287L774.246245296875,307.478464105231L774.7953707135417,314.87903080997705L775.3444961302083,317.5079820880669L775.6190588385417,317.15617957336127L775.893621546875,317.89996737841983L776.8545910260417,316.5142135408543L778.0901232135417,315.68852630501203L779.188374046875,305.536844440693L779.7374994635417,310.85230452964515L780.0120621718751,312.3380050842338L780.8357502968751,313.45230655531174L781.9340011302083,299.6941329656111L782.0712824843749,212.4156878335424L784.4050655052083,221.57744860493642L784.542346859375,260.1359731348503L785.777879046875,285.4383501800112L788.660787484375,287.49837344196555L789.2099129010417,302.33026253626554L790.9945705052083,296.16627119174166L791.4064145677083,286.4522285243536L791.543695921875,303.6442897257834L795.250292484375,312.4869794542477L795.3875738385417,314.3261806232815L795.7994179010417,318.49177177924423L796.7603873802084,312.8964691777966L797.8586382135417,315.8868629123579L798.9568890468751,308.7206728385758L799.2314517552084,298.6513874441354L799.5060144635416,306.638828963177L799.6432958177083,313.97376866715575L800.7415466510417,320.74329928228786L800.8788280052083,318.29345605130555L808.7038651927083,319.40837787968485L811.9986176927083,321.186964369725L812.2731804010417,323.43952625095113L813.0968685260417,314.4974773628393L813.371431234375,312.5083478755099L814.0578380052084,311.81517741296136L817.6271532135416,291.68001499532494L819.549092171875,304.2482725505026L820.784624359375,315.1800670981952L820.9219057135417,315.5291767912972L825.0623113552084,319.720720054426L830.0044401052083,318.44486582565014L830.141721459375,322.06089461846545L830.8281282302083,317.948511453337L832.6127858343749,317.6899973862109L833.0246298968751,304.06824467945825L833.9855993760417,315.73672186310176L834.260162084375,285.24712025508336L835.495694271875,291.52029744295237L839.4768535427082,306.23516898939397L840.3005416677083,308.2499878771773L840.8496670843749,318.8486593369324L841.3987925010417,300.5164039210532L842.9088873968751,284.32244852592714L843.0461687510417,144.8887021011262L843.3207314593751,218.9871708501299L843.4580128135417,254.0954276448761L849.2238296885416,267.0075495850195L849.3611110427082,274.48165846304227L849.6356737510417,299.69507888276746L850.322080521875,310.1012360261733L850.5966432302083,318.75305690370664L851.2830500010417,318.6876189928947L853.0677076052084,318.441199494243L853.616833021875,313.18043909012925L854.8523652093751,314.58885022035724L856.911585521875,315.2142993342002L857.5979922927082,317.2723679996663L858.147117709375,323.0667074150431L860.206338021875,322.20695564630233L862.4028396885417,325.0691942422545L863.912934584375,313.46235492612965L865.8348735427082,306.62523330093285L865.9721548968749,310.50174251654107L866.383998959375,316.74055238868584L866.6585616677083,320.49488531533353L867.207687084375,315.33682617535277L869.2669073968749,314.3337102935273L872.6989412510416,278.4732631952591L874.6208802093751,296.1230504001258L876.4055378135417,306.681864730239L877.3665072927083,309.7062367027705L879.4257276052084,313.87093690786986L879.7002903135417,310.1691584425729L881.8967919802084,314.6826127707422L883.681449584375,318.8767215215838L884.2305750010416,322.4417016506094L884.7797004177083,323.85065074699963L885.1915444802083,319.2896574626482L890.5455172927083,319.13329653084975L891.918330834375,312.36840166120766L892.0556121885417,302.66398170411475L892.1928935427084,299.2474541107776L893.153863021875,309.51392275058083L893.9775511468749,320.11600822589355L894.3893952093752,304.0381040522503L898.6451171885417,305.33438506464597L908.803937396875,315.370535684148L910.0394695843751,313.6304064467666L910.451313646875,310.5885289255313L911.8241271885416,298.6673733971023L914.7070356260417,309.5313686057217L920.4728525010416,316.48214701581793L921.4338219802083,323.3778749030344L922.3947914593749,314.03902101507396L924.1794490635416,317.3809929319886L925.4149812510417,320.40930525647985L925.9641066677084,326.1624137435675L926.1013880218751,320.3834698670927L926.2386693760417,323.1876269010842L929.807984584375,324.7290847760706L929.9452659385416,317.3361632558451L934.8873946885417,318.42451572292447L940.104086146875,316.24466047715873L941.4768996885417,315.49031686664205L942.8497132302084,321.7534464728133L942.9869945843751,323.9468145111747L947.7918419802085,320.8955497604797L952.3221266677083,323.30616681144085L953.0085334385417,321.8119481379026L954.5186283343751,309.16549870905993L955.342316459375,305.1032777373563L956.8524113552083,314.2077758533653L959.0489130218749,318.3382180035007L959.5980384385417,317.16803578000156L960.4217265635416,316.6209119952603L960.6962892718749,320.7758424399426L965.5011366677082,325.5623600654221L966.7366688552083,319.47679612242905L969.0704518760416,323.1739869854306L969.8941400010417,295.8024006313494L970.168702709375,305.96689919253197L972.227923021875,315.06588414841434L974.1498619802085,320.68127609946913L974.698987396875,322.6103476714912L977.3073331260416,318.601268157655L977.7191771885417,302.72522477777284L978.405583959375,311.54527830579156L978.9547093760416,313.5102906027563L982.5240245843751,309.31117739580526L987.4661533343751,303.69845618006445L988.4271228135417,282.5681587107178L989.6626550010417,287.5098402821722L989.7999363552084,285.25938099259656L990.349061771875,299.1090116006818L991.4473126052084,312.850950996394L992.1337193760417,320.33027571733624L992.820126146875,319.2708186318534L996.3894413552083,325.2741065152826L997.7622548968751,329.6145719330744L998.0368176052084,313.8777880849108L998.9977870843751,319.5330075663403L1000.0960379177084,318.2020557387379L1000.233319271875,279.5385736063269L1000.6451633343751,292.429517102961L1002.5671022927085,305.09811236974895L1004.4890412510417,308.8982085070816L1005.175448021875,308.7172890202976L1005.3127293760416,321.04114620150557L1007.9210751052084,307.58551640299584L1008.6074818760417,303.7996311109062L1009.0193259385418,298.0123738003252L1009.4311700010417,302.1156950069492L1009.7057327093751,305.05601211671336L1011.6276716677083,316.53317726217597L1017.6680512510417,314.95771248492713L1020.1391156260416,310.8848396152673L1020.825522396875,298.31180990721367L1021.1000851052083,314.98686935692456L1022.4728986468751,295.74112841003796L1026.3167765635417,292.0444989959449L1026.8659019802083,302.10103327852323L1027.2777460427085,306.5890583105655L1027.415027396875,314.7363250397766L1031.945312084375,317.48659696331674L1032.357156146875,289.01797209517946L1033.592688334375,302.1809809553523L1034.416376459375,300.49676400112503L1035.1027832302084,301.999431796228L1035.6519086468752,310.4822191690306L1037.2992848968752,300.03681459167234L1038.534817084375,308.07141539903887L1040.0449119802083,314.5408908980999L1040.4567560427083,319.243709132547L1041.1431628135417,318.8649244079761L1041.6922882302083,311.70431090321466L1043.888789896875,320.2365394645206L1048.1445118760416,321.2619434350845L1048.5563559385416,322.3174643544212L1051.4392643760416,320.90412521253234L1055.1458609385415,316.7082452267742L1056.655955834375,321.1056488031349L1058.0287693760417,317.88508838169673L1058.303332084375,314.5273432359272L1058.5778947927083,311.27015753125806L1058.8524575010417,316.98708824238577L1059.6761456260417,308.4473597677754L1062.421772709375,308.0442024842532L1063.7945862510417,312.8822074939802L1063.9318676052085,317.3380948411957L1064.2064303135417,307.8898502514819L1066.4029319802082,316.436232999145L1067.2266201052084,319.1549321719007L1072.1687488552084,324.7862691127519L1072.306030209375,316.88637414419827L1073.9534064593752,314.49137504924914L1074.365250521875,314.82106583044373L1075.0516572927083,322.16250253706284L1075.3262200010415,323.98647922064634L1076.1499081260417,324.47832982366594L1078.895535209375,324.44406436137467L1081.9157250010417,325.31563846665046L1084.9359147927082,312.3457547257343L1085.2104775010416,315.4257052398186L1085.6223215635418,317.57284163619L1089.0543554177084,319.709236442311L1090.4271689593752,320.569583844241L1093.1727960427083,321.4713129499442L1094.1337655218751,308.9238336392803L1095.5065790635417,317.8955997119102L1096.1929858343751,326.2700446795582L1096.4675485427083,316.73989544907477L1096.8793926052083,318.49561460512894L1098.3894875010417,316.94637159387617L1099.2131756260417,301.96634923148366L1100.5859891677085,305.8276125813753L1100.9978332302085,316.447163297479L1103.7434603135418,319.6627433184789L1104.018023021875,312.5921424145519L1107.724619584375,314.1151204902174L1108.6855890635418,321.8990574523905L1111.843060209375,325.2741651126343L1112.8040296885417,317.07526700520407L1113.2158737510417,314.51911637082037L1114.0395618760417,310.93035158727093L1119.668097396875,307.32205042370276L1121.0409109385416,311.12583259558016L1121.1781922927084,319.26772441157897L1121.4527550010416,311.7673525067291L1124.198382084375,316.02521996533676L1124.8847888552084,320.5469581954137L1126.257602396875,287.85016324676883L1127.6304159385418,298.7962945375312L1130.9251684385417,312.1124084367435L1132.5725446885417,318.37461755190014L1133.1216701052083,310.9613956147333L1134.494483646875,314.0799389075348L1136.965548021875,317.943514517566L1138.201080209375,324.95269709199965L1141.907676771875,321.075904430249L1142.5940835427084,309.32380882303914L1143.143208959375,282.2482447258385L1143.4177716677082,302.53127697345286L1145.4769919802084,308.98243832637564L1145.8888360427084,295.180641274565L1147.1243682302083,308.0318451354997L1148.085337709375,310.2876120897039L1148.4971817718751,303.88187053384576L1150.6936834385417,314.09477368229557L1153.9884359385417,267.7290534890804L1154.9494054177082,295.17191599858484L1156.4595003135416,306.97035859762923L1156.5967816677082,311.0000228256496L1157.0086257302085,313.98141606136767L1157.4204697927084,311.5457253682154L1159.8915341677082,320.06426861885876L1160.440659584375,316.9436553267552L1160.9897850010416,313.46572653753424L1161.264347709375,39.254201171919576L1165.3827883343752,145.23193861776244L1167.3047272927083,209.646134091587L1167.853852709375,256.96878680409037L1168.9521035427083,284.96568848475744L1169.7757916677083,299.6199925593248L1171.5604492718749,310.1969460912496L1172.384137396875,317.2889127886449L1173.0705441677082,294.5908009805588L1173.4823882302085,302.13766910836335L1174.3060763552082,306.0319045693453L1177.1889847927084,313.6924567224433L1178.149954271875,312.84209973364636L1179.1109237510416,307.7590999657119L1179.385486459375,316.11775826905625L1180.0718932302084,317.07479864286825L1180.3464559385418,320.16137685365715L1184.327615209375,321.4487833434958L1184.4648965635417,319.0213800687517L1185.2885846885417,311.41935220702806L1187.0732422927083,304.93305299441454L1187.3478050010417,298.22507857491684L1187.4850863552083,292.29704719494464L1190.7798388552083,305.3440556990361L1195.7219676052084,307.26989966527464L1196.5456557302082,314.3138513260832L1196.682937084375,322.2229866051617L1196.9574997927084,320.3597423096403L1200.5268150010418,319.5020933677543L1200.9386590635418,280.0018339014386L1201.0759404177084,291.4013744176917L1204.507974271875,298.7434770032049L1205.743506459375,300.28328834192405L1205.8807878135417,309.7609368016233L1207.802726771875,302.51058623446335L1209.450103021875,307.72880126067906L1211.7838860427084,316.62916566609226L1212.333011459375,315.5153416912489L1213.4312622927084,312.5085927686761L1214.1176690635416,306.26330944548073L1214.2549504177084,305.547517894988L1215.0786385427084,313.53374743510676L1217.8242656260416,319.84315478647767L1219.6089232302083,322.44798835148504L1222.2172689593751,319.8332100773734L1222.4918316677083,322.8671297799783L1223.4528011468751,323.75924344120614L1223.864645209375,175.11744825764643L1224.1392079177083,228.21784968440988L1225.2374587510417,270.0323350005188L1231.689682396875,290.4110009025927L1236.6318111468752,289.20315031623903L1237.5927806260418,302.10827443985244L1238.0046246885415,302.1090858101136L1238.1419060427083,305.8826334905199L1238.4164687510417,313.8326125723143L1240.3384077093751,320.35805513476527L1242.397628021875,325.41260029224134L1242.9467534385417,320.32311885334826L1244.5941296885417,318.7168832939914L1244.7314110427083,316.9502140470957L1246.2415059385416,316.6955432339448L1247.8888821885416,320.99380021242547L1250.7717906260416,324.3739468906142L1251.870041459375,330.21767768252187L1253.517417709375,329.9829567248307L1253.7919804177084,318.27267252239295L1254.4783871885415,311.2898229456063L1256.4003261468752,304.03311139826366L1256.5376075010417,297.47948492412246L1259.283234584375,307.44997431313914L1259.4205159385417,311.6033377336479L1260.518766771875,321.336995487746L1261.4797362510417,320.6979852121322L1262.166143021875,298.2881523829984L1263.6762379177085,309.03760398584944L1263.813519271875,313.10767226772055L1265.460895521875,311.0102824466206L1265.5981768760416,298.87096667591476L1269.0302107302084,303.95087058037456L1272.050400521875,312.47724754992316L1272.874088646875,314.6627908889979L1273.2859327093752,320.0270819144932L1273.4232140635418,327.9915559325417L1273.9723394802083,316.020074848209L1274.6587462510417,322.2688775026048L1280.9736885427083,325.20123665984863L1281.934658021875,324.2047065702462L1282.346502084375,322.89495584183464L1283.8565969802085,318.31881689914184L1284.2684410427082,313.9452734894686L1285.0921291677084,323.12385125867553L1286.3276613552084,322.719539830252L1288.112318959375,325.145409693816L1290.4461019802084,322.42701006928235L1290.8579460427084,312.2777652983431L1291.1325087510415,316.65186921715434L1293.878135834375,309.4177203469442L1296.6237629177083,312.40100090828565L1296.761044271875,318.44960443246885L1297.3101696885417,311.8365744493974L1301.4286103135419,282.45499653565633L1303.2132679177084,296.08894017903657L1305.5470509385416,310.0290808642793L1306.7825831260418,309.2527503634579L1308.0181153135418,311.8658499793187L1309.2536475010415,318.0576292931468L1310.0773356260418,319.39104709841934L1310.2146169802083,314.0226482903204L1312.9602440635417,315.25740186351146L1316.529559271875,306.49123489568274L1317.2159660427083,312.4338297501093L1318.8633422927082,319.66498614762156L1319.1379050010416,290.5104899142252L1320.0988744802085,298.2517413608976L1324.354596459375,304.5379192483687L1325.0410032302084,299.21294075011946L1329.0221625010417,313.75734712899947L1329.296725209375,319.0710246550927L1330.1204133343751,327.2798218497522L1331.9050709385417,324.7252720140289L1332.5914777093749,325.76364727642596L1333.415165834375,320.81458326383L1336.1607929177085,322.4747533636122L1337.2590437510416,318.28946196748103L1339.0437013552082,317.46251861511405L1340.5537962510416,309.65988903658376L1340.828358959375,320.57719544500947L1342.2011725010416,325.2821822526826L1343.711267396875,320.8026959516271L1344.2603928135416,316.07641262563203L1344.5349555218752,321.6843173365308L1345.4959250010418,321.5806850464833L1346.5941758343752,315.25016712285924L1347.2805826052083,297.0219525725988L1348.3788334385417,310.31977717604786L1352.771836771875,310.56300856876607L1353.4582435427083,316.2643168548928L1355.9293079177082,314.7282082082786L1356.6157146885416,316.4092542943838L1356.7529960427084,318.9540165466862L1357.713965521875,308.1517879405222L1359.2240604177082,303.7970968324488L1359.9104671885418,313.4523868537916L1360.4595926052084,315.3071532437465L1363.067938334375,318.30857521827585L1366.6372535427083,322.28166739709667L1367.186378959375,323.018200643419L1368.4219111468751,321.80710529172717L1369.2455992718749,319.30800987779907L1369.3828806260417,316.25172210633644L1369.9320060427083,320.2570427778586L1372.128507709375,322.1715521450314L1374.3250093760419,312.75414664773365L1375.835104271875,311.455027247377L1378.0316059385418,309.3039143839158L1379.2671381260418,313.8712769873454L1380.2281076052084,268.88755149134164L1380.9145143760416,291.8121264500555L1387.3667380218749,296.63110783008784L1387.9158634385417,310.0233770978013L1392.1715854177082,318.01220938829397L1393.2698362510416,322.6171376452912L1393.4071176052084,322.0727475780657L1393.6816803135416,327.7186587173404L1394.9172125010416,320.6784890190574L1396.9764328135416,300.40223365401107L1397.3882768760416,303.788596106893L1397.8001209385418,303.55823201918787L1398.7610904177084,317.27184778866604L1399.1729344802084,318.05141490350627L1399.8593412510418,322.8674114084959L1400.4084666677084,320.898918350281L1401.6439988552083,322.66329445319184L1401.781280209375,314.5999453784862L1402.3304056260415,299.2375715264169L1403.428656459375,311.72424918803046L1405.3505954177083,312.8436962536216L1405.899720834375,317.3766833746714L1406.0370021885417,324.9482444458543L1411.253693646875,327.0212159905681L1412.901069896875,321.1153875772772L1413.1756326052084,310.65575840473184L1414.1366020843752,317.41946981054093L1415.5094156260416,320.53591375081356L1415.6466969802084,315.1811835733157L1416.195822396875,313.78204981534446L1416.4703851052084,306.6577233555839L1417.019510521875,310.2253506150522L1417.431354584375,319.52660840184336L1418.666886771875,321.5075526455737L1419.6278562510417,326.33499517260174L1420.5888257302083,318.5085978181712L1421.4125138552083,318.46454315382783L1421.5497952093751,320.38617957921264L1422.373483334375,323.507812852946L1423.0598901052083,324.0669681498056L1424.432703646875,324.36185873789236L1425.8055171885417,319.56365767953685L1426.6292053135417,323.3522038512013L1427.4528934385419,326.8159516498839L1428.6884256260416,323.26030386360856L1431.434052709375,323.11204519241625L1431.845896771875,320.77018794729366L1432.1204594802084,317.6041287615128L1433.7678357302084,316.38520721997185L1433.905117084375,320.8609053762004L1435.0033679177084,323.89484743510843L1435.8270560427084,327.0712051836606L1436.1016187510418,321.4131804980839L1438.2981204177083,323.8042920574044L1438.435401771875,329.33701928683627L1438.5726831260417,319.86093061473304L1438.847245834375,320.7126193431627L1443.1029678135417,306.35860477428685L1443.2402491677083,301.9253888235797L1445.1621881260417,308.3120990532271L1446.3977203135416,315.99939596877283L1447.6332525010419,319.0573447085047L1449.0060660427082,321.79097182097854L1449.6924728135416,323.61106998831343L1452.7126626052084,322.2136479026694L1453.8109134385415,322.82427862601116L1456.2819778135417,322.8324995123956L1456.4192591677083,317.761309629619L1460.9495438552085,317.18618704755573L1463.0087641677085,319.98160921125833L1463.4206082302082,317.0932768549643L1463.557889584375,317.13360066991396L1463.969733646875,321.2014509630467L1465.205265834375,315.36465537318566L1465.7543912510419,317.09666172220005L1466.3035166677084,315.8505399058406L1467.9508929177084,318.76179953397184L1468.088174271875,321.41792318167654L1469.0491437510418,320.21067195271104L1472.3438962510418,325.9854612429557L1472.6184589593752,321.17408005886364L1474.677679271875,318.51739739427666L1474.8149606260417,320.949018773962L1475.089523334375,320.98507446270156L1475.6386487510417,321.3277447901655L1476.0504928135417,310.8680428599961L1477.2860250010417,314.7963316090447L1479.4825266677085,312.5849136293762L1479.8943707302083,316.49249969973397L1480.855340209375,321.2077208192096L1482.914560521875,327.1041084009973L1484.4246554177084,322.9986391238129L1486.209313021875,326.402889293812L1487.9939706260418,326.45139757009514L1489.915909584375,320.3482984858101L1490.327753646875,322.7491463264387L1491.2887231260418,323.59561629903914L1493.8970688552085,313.9618139063229L1494.0343502093751,312.6040269807386L1494.9953196885417,311.1388736792725L1495.4071637510417,308.5686786503433L1495.8190078135417,310.408681364247L1497.0545400010417,319.39493109964656L1497.1918213552085,323.62149443483503L1497.329102709375,325.94530799541565L1500.623855209375,319.7030504300952L1500.8984179177085,318.7509570704601L1501.447543334375,324.67208453016616L1501.5848246885416,323.61623150475333L1501.7221060427082,326.40589264712776L1502.5457941677084,327.23850992155377L1503.094919584375,326.19427417921105L1504.8795771885416,318.72579912116527L1505.5659839593752,319.34497248026736L1505.7032653135418,319.76631413771975L1506.1151093760418,320.8544381331322L1506.801516146875,313.22873661023806L1507.625204271875,306.94099340637445L1509.9589872927083,309.5565228042231" style="fill: none;" fill="none"></path></g></g></g></g><g opacity="0.2"><g><g><g><path stroke="rgb(255, 112, 67)" stroke-width="2px" d="M137.831852396875,216.88461728279407L139.75379135520834,229.54202558444098L142.773981146875,183.50281177117276L143.73495062604167,162.91635887439435L145.79417093854167,156.91706389647265L146.34329635520834,146.98432086064267L147.02970312604168,259.56019429518625L147.85339125104167,268.0494388525303L148.539798021875,210.1928302233036L149.50076750104168,252.35745233297348L151.422706459375,248.15308376458975L153.2073640635417,176.7586243427717L153.893770834375,264.63742064054196L154.85474031354167,274.0738181127952L155.12930302187502,205.63667458295822L158.835899584375,285.4400891913818L159.247743646875,264.3375721848928L159.52230635520834,259.2213533979196L159.79686906354166,287.60018067176526L161.306963959375,217.59141514393002L163.366184271875,81.87149247756368L165.013560521875,300.029346374365L165.425404584375,299.3019021864121L168.03375031354167,270.99870400245374L170.367533334375,272.989178361801L172.15219093854168,244.99225896596909L172.70131635520835,222.70547053447137L174.34869260520833,272.0401442326032L174.485973959375,295.3943849572768L175.99606885520834,261.6518908097194L176.40791291770833,260.1859716773033L177.780726459375,280.80271639961467L180.11450948020834,264.4959875299381L180.93819760520833,21.32840723257797L181.76188573020832,287.61100620489856L184.78207552187502,316.06336330450495L185.88032635520833,312.5956248079355L187.11585854270834,277.89104560705334L187.39042125104166,215.1226805310983L189.03779750104167,306.99930517031595L189.17507885520834,272.73034037764256L190.82245510520835,247.08592220453116L191.78342458437498,279.73292113955205L194.25448895937498,246.2063262600165L195.078177084375,283.5753996601472L197.00011604270836,309.2164230965651L197.137397396875,255.2026606798172L197.82380416770835,304.43032321333885L198.23564823020834,306.2035857301492L200.432149896875,249.12277277157858L201.255838021875,314.62950177376086L202.491370209375,284.78643135841077L203.0404956260417,275.0309713918429L203.315058334375,246.82719538303525L204.138746459375,255.05921809031412L207.15893625104167,303.44359639057745L207.433498959375,321.30687189102173L207.5707803135417,302.42842475267554L207.84534302187498,295.4402865859179L210.0418446885417,326.0449516417889L211.00281416770832,270.30276587834726L211.140095521875,311.9001420231966L213.06203448020833,295.24319090980754L213.47387854270835,237.4432025551796L214.43484802187498,318.227416023612L218.41600729270834,283.1865355647527L218.553288646875,304.68173040105745L219.51425812604168,270.40412912460476L223.22085468854164,287.7522426430996L223.49541739687498,322.70126853883266L224.18182416770836,294.77098047045564L225.41735635520834,303.5507529217463L225.554637709375,296.1901685297489L227.613858021875,308.19572752943407L227.88842073020834,-62.31968349676868L229.261234271875,288.28264246078635L232.28142406354166,254.9653112934186L236.12530198020835,324.6874524469559L236.53714604270837,288.6652130392882L239.28277312604166,290.9072314019387L242.85208833437503,-60.929021486869274L243.26393239687502,308.6107490544136L243.67577645937502,303.4453322383074L244.499464584375,320.9997380054914L245.87227812604166,316.8227582069544L246.97052895937503,84.72717576760509L247.79421708437502,283.08258137336145L248.0687797927083,282.0667983408158L250.8144068760417,278.82470936041614L252.59906448020834,327.34497546461915L254.93284750104166,291.2523273367148L256.1683796885417,309.5272360386757L256.7175051052083,307.8529104292393L259.4631321885417,310.3128418142979L260.4241016677083,299.83079275718103L261.1105084385417,314.53118267426123L264.9543863552083,298.0706132306503L266.60176260520836,293.4762432873249L267.562732084375,302.20985330526645L274.2895184385417,307.02455192116594L274.8386438552084,309.52145344248186L276.07417604270836,311.49820776398366L276.34873875104165,330.07411930308893L276.623301459375,315.49421261021723L276.89786416770835,279.9300638460196L278.4079590635416,329.5157909353192L279.918053959375,296.41661114876086L282.25183698020834,306.89296953265483L283.7619318760417,329.28333698155785L284.17377593854167,313.9036074498525L284.448338646875,295.496547719607L285.683870834375,301.7839292883873L286.37027760520834,319.325966071624L287.0566843760417,310.4192351710338L288.2922165635417,213.9365150653399L288.70406062604167,312.88898521203265L288.84134198020837,313.493090150448L289.93959281354165,284.9389593578302L290.214155521875,300.5770106086364L291.1751250010417,301.46589291095734L292.5479385427083,315.0043935775757L293.097063959375,296.06917224709804L294.6071588552083,168.2405202480463L295.29356562604164,279.7842013308635L295.568128334375,271.04112538466086L297.0782232302083,326.4543102842111L297.4900672927083,320.0149287386582L298.3137554177083,315.49737647061164L300.09841302187505,303.59576524908726L300.6475384385417,311.78723282424306L301.745789271875,315.20362485945225L303.9422909385417,241.2497627093242L307.511606146875,294.31656460807875L308.0607315635417,315.0069674207614L308.747138334375,308.59389080909585L308.8844196885417,325.7246449807515L309.158982396875,316.96969814483936L309.7081078135417,334.7130611985922L309.84538916770833,138.61370396614075L310.2572332302083,306.61642248126174L310.394514584375,298.19374725681087L312.5910162510417,316.99818571485L314.7875179177083,271.5692848471495L316.0230501052083,289.45622089275946L317.807707709375,324.4207753573473L319.1805212510417,291.70664058740323L322.8871178135417,330.5090496333746L323.161680521875,301.90360017006213L324.809056771875,305.32954364327287L324.94633812604167,311.93601549703345L325.08361948020837,296.4940145657613L332.35953125104163,290.2085227622436L333.869626146875,254.4006049678876L334.41875156354166,245.48281979560852L336.8898159385417,303.8937795208051L337.8507854177084,297.0857163163332L339.08631760520836,310.099580521767L339.49816166770836,310.1438253991879L340.870975209375,327.1506973344546L342.2437887510417,307.3994822043639L342.3810701052083,311.3414128285188L343.06747687604167,312.1614747540309L344.71485312604165,258.3937986814059L344.989415834375,310.17183625239596L345.26397854270834,309.6620891747566L348.284168334375,324.78781950473785L349.79426323020834,314.80681263368865L350.34338864687504,321.91827936126634L352.53989031354166,321.6468650320401L352.95173437604166,273.47756296854755L354.1872665635417,275.24303554800844L354.46182927187505,244.99767173253574L355.5600801052083,318.865476879936L356.3837682302083,294.2424447651093L358.85483260520834,325.7656554522423L359.9530834385417,315.00397244210427L360.227646146875,317.4430928940956L362.01230375104166,299.3120607435703L365.71890031354167,318.2212101542033L367.50355791770835,262.4384607076645L368.73909010520833,322.58032142428254L369.70005958437497,327.3307605391512L369.8373409385417,321.474954112218L369.9746222927083,312.01950720754957L370.523747709375,313.1045980224242L371.8965612510417,309.55117021501064L372.3084053135417,191.60258511396557L378.0742221885416,310.36692458735064L379.584317084375,311.3559601731025L380.95713062604165,330.39088906748935L382.467225521875,303.99863583995744L383.290913646875,279.1056900918484L384.66372718854166,301.8723378089758L390.56682541770834,316.35501778928136L390.704106771875,294.7278108780201L390.84138812604164,291.73051490691995L390.97866948020834,316.15877507283136L395.7835168760417,65.00797975980315L395.92079823020833,326.9150367654287L396.7444863552083,316.8884425140344L397.43089312604167,280.33640185686255L397.9800185427083,325.18066621629094L399.352832084375,323.8122517030973L401.6866151052083,290.1615608128218L402.0984591677083,307.25700587492724L402.9221472927083,311.40634678762694L403.6085540635417,321.10695653122207L404.29496083437505,302.6020565560231L405.39321166770833,301.88297949616725L405.8050557302083,273.6992597969679L407.31515062604166,320.9748974259083L408.9625268760417,297.91665721856634L409.09980823020834,319.93117622343397L409.7862150010417,335.98417150601745L421.180567396875,313.54517627106264L422.69066229270834,319.66829576629857L423.7889131260416,300.6134121051202L425.16172666770836,328.66823121504143L426.25997750104165,320.8623473678644L426.80910291770834,182.0366959663538L428.18191645937503,321.73527355262866L428.593760521875,328.5537839096326L430.241136771875,301.7831254968276L433.9477333343751,296.873057867472L436.006953646875,318.87570170714304L438.478018021875,278.2729534850671L440.81180104270834,276.95926306797907L442.18461458437497,229.01925323559686L444.243834896875,294.97862804853L445.067523021875,323.4734621116748L453.85352968854164,321.865594672469L453.99081104270834,333.7274032475857L455.0890618760417,317.5664385568637L459.482065209375,322.67536550072526L462.36497364687506,312.79315658372184L464.5614753135416,330.0334391129704L465.52244479270837,310.2879563421011L466.071570209375,320.75645210536624L471.013698959375,313.7584290126195L472.3865125010417,284.80037799706827L473.34748198020833,317.6807950081734L474.720295521875,323.4428774152811L476.2303904177083,311.93563925417567L477.3286412510417,324.0114316791296L478.9760175010417,328.0973671193306L479.5251429177083,305.2089706338369L480.21154968854165,228.3006464793132L481.58436323020834,324.0446180093747L482.2707700010417,316.32378749434764L483.6435835427083,329.5725341301698L486.25192927187504,311.9747685113778L489.38743540104167,307.83877139366587L490.485686234375,308.54358970431184L490.76024894270836,316.5595827412147L491.17209300520835,308.81224848215396L493.6431573802083,316.96383645213564L495.427814984375,321.320762948348L495.83965904687506,295.6909498388951L496.5260658177083,333.7274128674315L497.6243166510417,314.54860742160906L497.7615980052083,307.96567212389067L501.33091321354163,318.4199925099428L501.88003863020833,231.52730522705957L502.017319984375,238.84705871802112L502.5664454010417,218.93210526154593L502.7037267552083,309.40639794904456L502.97828946354167,323.75852165772363L503.9392589427083,329.67596564327295L504.35110300520836,319.7225068039619L505.312072484375,216.04219242242667L506.6848860260417,316.31867401187236L507.371292796875,321.00473818756063L507.92041821354167,304.84306162825L508.3322622760417,292.46571482832616L508.46954363020836,327.35139083289187L509.01866904687506,312.11780706735755L510.52876394270834,288.0317611579712L511.2151707135417,314.57452328617757L511.3524520677083,313.4034096724712L511.901577484375,309.0632110192226L512.725265609375,327.1447159281144L513.960797796875,296.69346603521933L514.0980791510417,299.93996304273605L514.784485921875,336.0066130029468L514.9217672760417,320.6299511331778L515.4708926927083,315.8437871176463L516.843706234375,293.4408037754206L518.079238421875,297.22067206410264L519.8638960260417,316.89543079756777L523.7077739427083,331.7461724911745L525.9042756093751,326.8570376462661L526.7279637343751,317.29169148550585L528.9244654010417,285.5940708563878L531.258248421875,333.23548388194575L533.0429060260416,315.3267695743304L537.0240652968749,298.88599136013255L537.2986280052083,315.27044217059245L538.671441546875,306.8870009527757L541.142505921875,328.6974990614332L542.5153194635417,324.78160722209856L542.9271635260417,286.34131054924086L543.2017262343751,306.5809530409483L545.8100719635416,336.1153081750067L547.1828855052083,265.7753329597987L548.2811363385417,331.80519452060645L552.3995769635417,334.4987363786651L554.4587972760417,295.24747922328805L558.9890819635417,285.853729734054L559.5382073802083,296.39515247941017L560.6364582135417,321.99846825806L561.8719904010417,298.46393238351897L562.0092717552083,292.9618081381688L562.9702412343751,300.3511879352423L563.5193666510417,325.6475365723555L564.0684920677083,220.30762349642242L564.3430547760416,324.3654056627017L565.029461546875,306.13050483052547L565.1667429010416,319.07065536425665L571.0698411302084,307.23903600298445L571.4816851927084,332.34869977487966L572.1680919635418,316.1377631918742L573.4036241510416,314.1310248799049L574.7764376927083,325.47280383110046L575.737407171875,272.9901232444323L577.384783421875,305.16318016785846L577.9339088385417,300.7065236614301L578.208471546875,300.66783905487796L579.1694410260417,306.3175189082439L580.267691859375,291.48726107294743L581.091379984375,326.86241514006485L586.1707900885416,321.1687586960884L590.8383561302084,335.3100217981981L594.682234046875,318.3344613921184L596.1923289427084,313.5308191856513L597.8397051927084,312.9523735825832L599.4870814427082,300.63677764168153L599.7616441510417,311.91000770949404L600.5853322760416,285.4544719297152L601.683583109375,228.00082367658615L602.919115296875,320.1830237863155L604.7037729010417,311.3005755142524L606.2138677968751,313.41383117208113L607.3121186302084,297.87507383181503L608.6849321718751,328.16924981371716L608.9594948802084,319.5683113646049L611.979684671875,256.0455814966789L613.9016236302084,330.48919320278446L614.038904984375,303.45821000521L614.3134676927083,311.7041365962762L614.862593109375,176.63920143934396L615.1371558177083,333.13150617537593L616.2354066510417,321.86911553602954L618.157345609375,328.87176791234657L622.1385048802084,335.28325404284095L623.099474359375,332.9054205595301L623.2367557135417,324.1078161207529L625.8451014427084,321.1785474236195L626.3942268593751,299.02201170416976L627.3551963385416,334.74865035254226L630.100823421875,321.0028526977851L631.1990742552084,303.5115595322389L631.8854810260417,299.9164051092588L633.2582945677083,317.6405797772683L635.866640296875,317.1065885504851L636.1412030052084,270.6142094547932L637.514016546875,317.1003484771802L637.925860609375,295.6900049562638L638.2004233177083,304.3051839837661L638.8868300885417,322.752518801735L639.4359555052084,323.41794277498354L639.8477995677083,286.9021048041491L639.985080921875,310.0156099567046L643.6916774843751,284.7614667897041L645.339053734375,309.31641177374587L645.4763350885416,301.66067982407714L647.810118109375,322.272922458557L650.0066197760417,329.7742163349803L650.1439011302083,319.7400640914073L650.9675892552083,327.15296868693366L651.1048706093751,317.74550450421293L651.2421519635417,322.5482680980976L653.4386536302083,324.61447843450765L654.399623109375,322.8999461451402L655.0860298802083,337.0902704607982L655.7724366510416,325.2210823950859L656.1842807135417,296.77813350466585L658.3807823802083,328.584130247625L660.8518467552083,307.9407759629763L662.9110670677084,261.4274191902234L664.4211619635417,309.9118438867422L664.695724671875,315.45936311552157L665.7939755052083,322.2125696837902L669.226009359375,302.4646295767564L672.3834805052084,315.8636702700303L672.7953245677083,321.7628953365179L673.3444499843749,325.26503440164606L675.1291075885417,320.7016296730592L676.227358421875,329.9486636874767L678.5611414427084,313.1066288787585L679.110266859375,333.99661463212504L680.2085176927084,244.97784202373947L681.5813312343749,320.8338170429835L681.7186125885418,322.066572490793L686.111615921875,319.36669649871493L686.6607413385416,302.54051092037787L686.935304046875,302.2397517859936L688.170836234375,320.4569563773962L690.3673379010417,326.27648422809744L692.4265582135416,325.9534091892151L696.2704361302084,303.9591217889236L697.0941242552084,316.6452870162634L700.8007208177083,310.28635089672525L701.0752835260417,315.57889076838126L702.8599411302083,329.5563727892362L704.5073173802083,316.20289809887225L705.056442796875,324.23970634432936L709.4494461302083,315.94193305992167L710.6849783177083,321.3380957727249L713.5678867552084,314.00034461915493L714.6661375885417,313.06806184809943L715.352544359375,280.2957205978724L717.4117646718751,318.21982489640897L718.7845782135416,325.3128920655984L719.470984984375,301.52181628117194L719.7455476927083,329.09850447109113L722.0793307135417,321.81029552335923L727.4333035260418,313.0924000579577L728.6688357135416,332.5702854406375L729.355242484375,326.27617211754506L730.8653373802084,328.7619263753295L735.9447474843751,322.81475492853383L736.6311542552083,329.43886316624975L738.9649372760416,143.2315377822289L739.239499984375,337.5338394126067L740.3377508177083,315.61644237087324L740.886876234375,321.15533152910376L743.0833779010417,322.29246357197945L743.2206592552084,307.8338759610286L745.829004984375,307.81697923632765L746.652693109375,273.71124826257045L748.9864761302084,303.3139507976862L749.947445609375,318.5210992269791L752.1439472760417,297.2931287426215L752.9676354010417,329.081883515303L758.0470455052083,333.36069045043905L758.4588895677083,333.41794563486025L759.008014984375,307.80435372315924L763.4010183177083,330.6277211199586L763.538299671875,331.04997142461633L763.8128623802083,278.03709196815123L768.2058657135417,326.3768993851084L768.480428421875,337.6904221770282L769.0295538385417,211.5409853412555L773.422557171875,324.96415769136865L774.246245296875,322.6145595243344L774.7953707135417,325.9798808670961L775.3444961302083,321.4514090052018L775.6190588385417,316.62847580130284L775.893621546875,319.01564908600767L776.8545910260417,314.435582784506L778.0901232135417,314.44999545124864L779.188374046875,290.3093216442145L779.7374994635417,318.82549466307347L780.0120621718751,314.5665559161168L780.8357502968751,315.1237587619286L781.9340011302083,279.05687258106013L782.0712824843749,81.49802013543936L784.4050655052083,235.32008976202746L784.542346859375,317.97375992972115L785.777879046875,323.3919157477526L788.660787484375,290.5884083348971L789.2099129010417,324.5780961777155L790.9945705052083,286.92028417495584L791.4064145677083,271.8811645232714L791.543695921875,329.4323815279282L795.250292484375,325.75101404694414L795.3875738385417,317.0849823768322L795.7994179010417,324.74015851318836L796.7603873802084,304.5035152756251L797.8586382135417,320.3724535142L798.9568890468751,297.9713877279025L799.2314517552084,283.54745935247496L799.5060144635416,318.61999124173934L799.6432958177083,324.97617822312395L800.7415466510417,330.8975952049861L800.8788280052083,314.61869120483215L808.7038651927083,321.0807606222538L811.9986176927083,323.8548441047852L812.2731804010417,326.8183690727903L813.0968685260417,301.0844040306715L813.371431234375,309.5246536445159L814.0578380052084,310.7754217191385L817.6271532135416,261.4772713688704L819.549092171875,323.10065888326903L820.784624359375,331.5777589197342L820.9219057135417,316.05284133095006L825.0623113552084,326.0080349491193L830.0044401052083,316.53108448248645L830.141721459375,327.4849378076883L830.8281282302083,311.77993670564433L832.6127858343749,317.3022262855218L833.0246298968751,283.6356156193293L833.9855993760417,333.23943763856704L834.260162084375,239.51271784305573L835.495694271875,300.93006322475577L839.4768535427082,328.3074763090564L840.3005416677083,311.2722162088523L840.8496670843749,334.74666652656515L841.3987925010417,273.0180207972343L842.9088873968751,260.0315154332381L843.0461687510417,-64.26191753607533L843.3207314593751,330.13487397363554L843.4580128135417,306.7578128369955L849.2238296885416,286.37573249523456L849.3611110427082,285.69282178007643L849.6356737510417,337.5152095123552L850.322080521875,325.710471741282L850.5966432302083,331.7307882200067L851.2830500010417,318.58946212667684L853.0677076052084,318.0715702462655L853.616833021875,305.28929848395865L854.8523652093751,316.70146691569914L856.911585521875,316.1524730049647L857.5979922927082,320.3594709978654L858.147117709375,331.75821653810834L860.206338021875,320.91732799319124L862.4028396885417,329.3625521361828L863.912934584375,296.0520959519423L865.8348735427082,296.36955086313765L865.9721548968749,316.3165063399535L866.383998959375,326.0987671969028L866.6585616677083,326.1263847053051L867.207687084375,307.5997374653816L869.2669073968749,312.82903647078916L872.6989412510416,224.68259254785687L874.6208802093751,322.5977312074258L876.4055378135417,322.52008622540876L877.3665072927083,314.24279466156776L879.4257276052084,320.11798721551895L879.7002903135417,304.61649074462747L881.8967919802084,321.4527942629961L883.681449584375,325.1678846478462L884.2305750010416,327.7891718441477L884.7797004177083,325.96407439158514L885.1915444802083,312.44816753612116L890.5455172927083,318.898755133152L891.918330834375,302.2210593567445L892.0556121885417,288.1073517684753L892.1928935427084,294.1226627207719L893.153863021875,324.91362571028566L893.9775511468749,336.01913643886263L894.3893952093752,279.9212477917855L898.6451171885417,307.2788065832395L908.803937396875,330.4247616134011L910.0394695843751,311.0202125906944L910.451313646875,306.0257126436784L911.8241271885416,280.7856401044589L914.7070356260417,325.8273614186507L920.4728525010416,326.90831463096237L921.4338219802083,333.72146673385913L922.3947914593749,300.0307401831334L924.1794490635416,322.3939508073605L925.4149812510417,324.9517737432168L925.9641066677084,334.7920764741989L926.1013880218751,311.7150540523804L926.2386693760417,327.39386245207146L929.807984584375,327.04127158855016L929.9452659385416,306.24678097550685L934.8873946885417,320.05704442354346L940.104086146875,312.97487760851016L941.4768996885417,314.3588014508669L942.8497132302084,331.1481408820702L942.9869945843751,327.23686656871666L947.7918419802085,316.3186526344373L952.3221266677083,326.92209238788257L953.0085334385417,319.5706201275954L954.5186283343751,290.19582456579576L955.342316459375,299.0099462798009L956.8524113552083,327.86452302737877L959.0489130218749,324.5338812287037L959.5980384385417,315.4127624447529L960.4217265635416,315.8002263181485L960.6962892718749,327.008238106966L965.5011366677082,332.74213650364146L966.7366688552083,310.34845020793955L969.0704518760416,328.71977327993284L969.8941400010417,254.74502110022766L970.168702709375,321.2136470343058L972.227923021875,328.7143615822379L974.1498619802085,329.1043640260513L974.698987396875,325.5039550295243L977.3073331260416,312.5876488869007L977.7191771885417,278.9111597079497L978.405583959375,324.7753585978196L978.9547093760416,316.45780904820333L982.5240245843751,303.0125075853788L987.4661533343751,295.2793743564533L988.4271228135417,250.87271250669772L989.6626550010417,294.9223626393538L989.7999363552084,281.8836920582331L990.349061771875,319.8834575128097L991.4473126052084,333.46386008996234L992.1337193760417,331.54926279874945L992.820126146875,317.6816330036292L996.3894413552083,334.27903834042644L997.7622548968751,336.1252700597621L998.0368176052084,290.2726123126654L998.9977870843751,328.01583678848465L1000.0960379177084,316.2056279973342L1000.233319271875,221.54335040771045L1000.6451633343751,311.76593234791204L1002.5671022927085,324.1010052699309L1004.4890412510417,314.59835271308054L1005.175448021875,308.44590979012156L1005.3127293760416,339.52693197331746L1007.9210751052084,287.4020717052313L1008.6074818760417,298.1208031727718L1009.0193259385418,289.3314878344536L1009.4311700010417,308.2706768168853L1009.7057327093751,309.4664877813596L1011.6276716677083,333.7489249803699L1017.6680512510417,312.594515319054L1020.1391156260416,304.7755303107775L1020.825522396875,279.4522653451333L1021.1000851052083,339.9994585314909L1022.4728986468751,266.87251698970795L1026.3167765635417,286.4995548748053L1026.8659019802083,317.1858347023909L1027.2777460427085,313.32109585862895L1027.415027396875,326.9572251335932L1031.945312084375,321.61200484862695L1032.357156146875,246.31503479297345L1033.592688334375,321.9254942456117L1034.416376459375,297.97043856978416L1035.1027832302084,304.25343348888254L1035.6519086468752,323.20640022823443L1037.2992848968752,284.368707725635L1038.534817084375,320.12331661008875L1040.0449119802083,324.24510414669146L1040.4567560427083,326.29793648421764L1041.1431628135417,318.2967473211197L1041.6922882302083,300.9633906460725L1043.888789896875,333.03488230647946L1048.1445118760416,322.8000493909304L1048.5563559385416,323.90074573342616L1051.4392643760416,318.7841164996991L1055.1458609385415,310.4144252481369L1056.655955834375,327.701754167676L1058.0287693760417,313.0542477495395L1058.303332084375,309.49072551727295L1058.5778947927083,306.38437897425433L1058.8524575010417,325.56248430907726L1059.6761456260417,295.63776705585997L1062.421772709375,307.43946655896997L1063.7945862510417,320.1392150085706L1063.9318676052085,324.02192586201886L1064.2064303135417,293.71748336691127L1066.4029319802082,329.25580712063953L1067.2266201052084,323.2329809310345L1072.1687488552084,333.23327452402845L1072.306030209375,305.0365316913678L1073.9534064593752,310.89887640682554L1074.365250521875,315.31560200223555L1075.0516572927083,333.1746575969916L1075.3262200010415,326.7224442460216L1076.1499081260417,325.21610572819526L1078.895535209375,324.39266616793776L1081.9157250010417,326.6229996245641L1084.9359147927082,292.8909291143601L1085.2104775010416,320.04563101094504L1085.6223215635418,320.79354623074715L1089.0543554177084,322.9138286514924L1090.4271689593752,321.860104947136L1093.1727960427083,322.82390660849904L1094.1337655218751,290.1026146732844L1095.5065790635417,331.3532488208551L1096.1929858343751,338.8317121310303L1096.4675485427083,302.44467160334955L1096.8793926052083,321.1291933392103L1098.3894875010417,314.622507076997L1099.2131756260417,279.4963156878948L1100.5859891677085,311.61950760621295L1100.9978332302085,332.3764893716345L1103.7434603135418,324.4861133499787L1104.018023021875,301.9862410586614L1107.724619584375,316.39958760371576L1108.6855890635418,333.5749628956501L1111.843060209375,330.336826603L1112.8040296885417,304.77691984405885L1113.2158737510417,310.68489041924477L1114.0395618760417,305.5472044119468L1119.668097396875,301.90959867835045L1121.0409109385416,316.8315058533962L1121.1781922927084,331.4805621355772L1121.4527550010416,300.51679464945425L1124.198382084375,322.4120211532483L1124.8847888552084,327.32956554052925L1126.257602396875,238.80497082380148L1127.6304159385418,315.2154914736748L1130.9251684385417,332.08657928556204L1132.5725446885417,327.76793122463505L1133.1216701052083,299.8415627089831L1134.494483646875,318.75775384673705L1136.965548021875,323.7388779326127L1138.201080209375,335.46647095365023L1141.907676771875,315.26071543762316L1142.5940835427084,291.6956654122243L1143.143208959375,241.63489858003766L1143.4177716677082,332.9558253448743L1145.4769919802084,318.65918035575976L1145.8888360427084,274.4779456968491L1147.1243682302083,327.30865092690175L1148.085337709375,313.6712625210102L1148.4971817718751,294.2732582000586L1150.6936834385417,329.4141284049703L1153.9884359385417,198.1804731992575L1154.9494054177082,336.33620976284146L1156.4595003135416,324.66802249619593L1156.5967816677082,317.04451916768L1157.0086257302085,318.45350591494486L1157.4204697927084,307.8921893284871L1159.8915341677082,332.8420834948237L1160.440659584375,312.2627353885999L1160.9897850010416,308.2488333537029L1161.264347709375,-372.0630868765024L1165.3827883343752,304.1985447865266L1167.3047272927083,306.2674273023238L1167.853852709375,327.95276587284525L1168.9521035427083,326.96104100575815L1169.7757916677083,321.6014486711759L1171.5604492718749,326.0623763891367L1172.384137396875,327.92686283473785L1173.0705441677082,260.5436332684297L1173.4823882302085,313.45797130007014L1174.3060763552082,311.8732577608182L1177.1889847927084,325.18328495209033L1178.149954271875,311.5665642504509L1179.1109237510416,300.1346003138102L1179.385486459375,328.65574572407286L1180.0718932302084,318.5103592035862L1180.3464559385418,324.7912441698404L1184.327615209375,323.3798930782538L1184.4648965635417,315.3802751566355L1185.2885846885417,300.01631041444267L1187.0732422927083,295.20360417549426L1187.3478050010417,288.1631169456702L1187.4850863552083,283.4050001249864L1190.7798388552083,324.9145684551734L1195.7219676052084,310.15866561463247L1196.5456557302082,324.879778817296L1196.682937084375,334.0866895237794L1196.9574997927084,317.5648758663581L1200.5268150010418,318.21561995492533L1200.9386590635418,220.75144470196506L1201.0759404177084,308.50068519207144L1204.507974271875,309.75663088147456L1205.743506459375,302.59300535000284L1205.8807878135417,323.97740949117224L1207.802726771875,291.6350603837233L1209.450103021875,315.5561238000026L1211.7838860427084,329.9797122742121L1212.333011459375,313.8446057289839L1213.4312622927084,307.998469384817L1214.1176690635416,296.89538446068764L1214.2549504177084,304.47383056924895L1215.0786385427084,325.5130917452849L1217.8242656260416,329.3072658135341L1219.6089232302083,326.35523869899606L1222.2172689593751,315.91104266620596L1222.4918316677083,327.41800933388566L1223.4528011468751,325.09741393304785L1223.864645209375,-47.84524451769318L1224.1392079177083,307.868451824555L1225.2374587510417,332.75406297468226L1231.689682396875,320.97899975570346L1236.6318111468752,287.3913744367086L1237.5927806260418,321.46596062527254L1238.0046246885415,302.1103028655052L1238.1419060427083,311.5429550111294L1238.4164687510417,325.75758119500597L1240.3384077093751,330.1462189784417L1242.397628021875,332.9944180284555L1242.9467534385417,312.6888966950087L1244.5941296885417,316.3075299549561L1244.7314110427083,314.30021017675216L1246.2415059385416,316.31353701421847L1247.8888821885416,327.44118568014636L1250.7717906260416,329.4441669078974L1251.870041459375,338.98327387038336L1253.517417709375,329.6308752882939L1253.7919804177084,300.7072462187364L1254.4783871885415,300.8155485804265L1256.4003261468752,293.14804407724966L1256.5376075010417,287.6490452129107L1259.283234584375,322.40570839666407L1259.4205159385417,317.8333828644111L1260.518766771875,335.9374821188931L1261.4797362510417,319.73946979871164L1262.166143021875,264.6734031392978L1263.6762379177085,325.16178139012595L1263.813519271875,319.21277469052717L1265.460895521875,307.86419771497066L1265.5981768760416,280.66199301985597L1269.0302107302084,311.5707264370643L1272.050400521875,325.26681300424616L1272.874088646875,317.94110589761L1273.2859327093752,328.07351845273604L1273.4232140635418,339.9382669596145L1273.9723394802083,298.06285322170993L1274.6587462510417,331.64208148419857L1280.9736885427083,329.5997753957143L1281.934658021875,322.7099114358425L1282.346502084375,320.93032974921744L1283.8565969802085,311.45460848510265L1284.2684410427082,307.3849583749588L1285.0921291677084,336.891717912486L1286.3276613552084,322.11307268761675L1288.112318959375,328.78421448916197L1290.4461019802084,318.349410632482L1290.8579460427084,297.0538981419343L1291.1325087510415,323.2130250953711L1293.878135834375,298.5664970416289L1296.6237629177083,316.87592175029795L1296.761044271875,327.52250971874366L1297.3101696885417,301.9170294747903L1301.4286103135419,238.38262966504465L1303.2132679177084,316.53985564410686L1305.5470509385416,330.9392918921434L1306.7825831260418,308.08825461222574L1308.0181153135418,315.78549940310995L1309.2536475010415,327.3452982638891L1310.0773356260418,321.391173806328L1310.2146169802083,305.97005007817194L1312.9602440635417,317.109532223298L1316.529559271875,293.3419844439397L1317.2159660427083,321.34772203174924L1318.8633422927082,330.51172074388995L1319.1379050010416,246.77874556413065L1320.0988744802085,309.8636185309062L1324.354596459375,313.96718607957547L1325.0410032302084,291.22547300274556L1329.0221625010417,335.5739566973196L1329.296725209375,327.0415409442324L1330.1204133343751,339.5930176417415L1331.9050709385417,320.89344726044396L1332.5914777093749,327.32121017002146L1333.415165834375,313.3909872449361L1336.1607929177085,324.96500851328557L1337.2590437510416,312.0115248732842L1339.0437013552082,316.22210358656366L1340.5537962510416,297.9559446687882L1340.828358959375,336.953155057648L1342.2011725010416,332.3396624641923L1343.711267396875,314.08346650004387L1344.2603928135416,308.9869876366395L1344.5349555218752,330.09617440287883L1345.4959250010418,321.4252366114121L1346.5941758343752,305.7543902374231L1347.2805826052083,269.67963074720825L1348.3788334385417,330.2665140812214L1352.771836771875,310.92785565784345L1353.4582435427083,324.8162792840829L1355.9293079177082,312.42404523835734L1356.6157146885416,318.93082342354154L1356.7529960427084,322.7711599251399L1357.713965521875,291.94844503127615L1359.2240604177082,297.2650601703387L1359.9104671885418,327.9353218858059L1360.4595926052084,318.0893028286787L1363.067938334375,322.8107081800699L1366.6372535427083,328.24130566532796L1367.186378959375,324.12300051290254L1368.4219111468751,319.9904622641893L1369.2455992718749,315.5593667569069L1369.3828806260417,311.66729044914246L1369.9320060427083,326.2650237851418L1372.128507709375,325.04331619579057L1374.3250093760419,298.62803840178714L1375.835104271875,309.5063481468421L1378.0316059385418,306.077245088724L1379.2671381260418,320.7223208924899L1380.2281076052084,201.41196324733588L1380.9145143760416,326.19898888812617L1387.3667380218749,303.8595799001364L1387.9158634385417,330.1117809993716L1392.1715854177082,329.99545782403305L1393.2698362510416,329.524530030787L1393.4071176052084,321.25616247722735L1393.6816803135416,336.18752542625253L1394.9172125010416,310.1182344716329L1396.9764328135416,269.9878506064415L1397.3882768760416,308.8681397862159L1397.8001209385418,303.2126858876302L1398.7610904177084,337.84227144288326L1399.1729344802084,319.22076557576656L1399.8593412510418,330.09140616598035L1400.4084666677084,317.9461787629586L1401.6439988552083,325.3098586075581L1401.781280209375,302.50492176642786L1402.3304056260415,276.194010748313L1403.428656459375,330.45426568045065L1405.3505954177083,314.52286685200835L1405.899720834375,324.1761640562461L1406.0370021885417,336.30558605262866L1411.253693646875,330.1306733076389L1412.901069896875,312.2566449573407L1413.1756326052084,294.96631464591394L1414.1366020843752,327.5650369192545L1415.5094156260416,325.2105796612226L1415.6466969802084,307.1490883070689L1416.195822396875,311.6833491783876L1416.4703851052084,295.97123366594315L1417.019510521875,315.57679150425474L1417.431354584375,333.4784950820299L1418.666886771875,324.4789690111692L1419.6278562510417,333.5761589631438L1420.5888257302083,306.76900178652545L1421.4125138552083,318.3984611573128L1421.5497952093751,323.2686342172898L1422.373483334375,328.19026276354606L1423.0598901052083,324.9057010950951L1424.432703646875,324.8041946200224L1425.8055171885417,312.3663560920037L1426.6292053135417,329.0350231086979L1427.4528934385419,332.0115733479078L1428.6884256260416,317.9268321841955L1431.434052709375,322.88965718562787L1431.845896771875,317.25740207960973L1432.1204594802084,312.85503998284156L1433.7678357302084,314.5568249076605L1433.905117084375,327.5744526105432L1435.0033679177084,328.44576052347054L1435.8270560427084,331.8357418064888L1436.1016187510418,312.9261434697188L1438.2981204177083,327.3909593963852L1438.435401771875,337.63611013098404L1438.5726831260417,305.6467976065783L1438.847245834375,321.9901524358071L1443.1029678135417,284.82758292097316L1443.2402491677083,295.2755648975189L1445.1621881260417,317.8921643976982L1446.3977203135416,327.53034134209156L1447.6332525010419,323.64426781810243L1449.0060660427082,325.89141248968934L1449.6924728135416,326.3412172393157L1452.7126626052084,320.1175147742033L1453.8109134385415,323.7402247110238L1456.2819778135417,322.8448308419723L1456.4192591677083,310.1545248054541L1460.9495438552085,316.3235031744609L1463.0087641677085,324.1747424568121L1463.4206082302082,312.7607783205234L1463.557889584375,317.1940863923385L1463.969733646875,327.3032264027458L1465.205265834375,306.6094619883941L1465.7543912510419,319.6946712457217L1466.3035166677084,313.9813571813015L1467.9508929177084,323.12868897616863L1468.088174271875,325.4021086532336L1469.0491437510418,318.39979510926287L1472.3438962510418,334.64764517832265L1472.6184589593752,313.95700828272567L1474.677679271875,314.53237339739616L1474.8149606260417,324.5964508434901L1475.089523334375,321.0391579958109L1475.6386487510417,321.84175028136144L1476.0504928135417,295.17848996474197L1477.2860250010417,320.6887647326176L1479.4825266677085,309.2677866598735L1479.8943707302083,322.3538788052706L1480.855340209375,328.2805524984231L1482.914560521875,335.9486897736788L1484.4246554177084,316.84043520803635L1486.209313021875,331.5092645488106L1487.9939706260418,326.5241599845199L1489.915909584375,311.19364985938256L1490.327753646875,326.35041808738157L1491.2887231260418,324.86532125793974L1493.8970688552085,299.5111103172486L1494.0343502093751,310.5673465923621L1494.9953196885417,308.94114372707327L1495.4071637510417,304.7133861069496L1495.8190078135417,313.16868543510253L1497.0545400010417,332.8743057027459L1497.1918213552085,329.9613394376177L1497.329102709375,329.43102833628654L1500.623855209375,310.33966408211455L1500.8984179177085,317.32281703100756L1501.447543334375,333.55377571972514L1501.5848246885416,322.0324519666342L1501.7221060427082,330.59038436068937L1502.5457941677084,328.4874358331928L1503.094919584375,324.62792056569685L1504.8795771885416,307.52308653409665L1505.5659839593752,320.2737325189205L1505.7032653135418,320.3983266238983L1506.1151093760418,322.48662412625094L1506.801516146875,301.79018432589675L1507.625204271875,297.50937860057905L1509.9589872927083,313.47981690099607" style="fill: none;" fill="none"></path></g></g></g></g></g></g><g transform="translate(59, 373)" clip-path="url(#clip_1)"><clipPath id="clip_1"><rect width="1647" height="26"></rect></clipPath><g><g><line x1="0" y1="0" x2="0" y2="5" style="visibility: inherit;" fill="rgb(0, 0, 0)" stroke="rgb(204, 204, 204)" stroke-width="1px"></line><line x1="137.28135416666666" y1="0" x2="137.28135416666666" y2="5" style="visibility: inherit;" fill="rgb(0, 0, 0)" stroke="rgb(204, 204, 204)" stroke-width="1px"></line><line x1="274.5627083333333" y1="0" x2="274.5627083333333" y2="5" style="visibility: inherit;" fill="rgb(0, 0, 0)" stroke="rgb(204, 204, 204)" stroke-width="1px"></line><line x1="411.8440625" y1="0" x2="411.8440625" y2="5" style="visibility: inherit;" fill="rgb(0, 0, 0)" stroke="rgb(204, 204, 204)" stroke-width="1px"></line><line x1="549.1254166666666" y1="0" x2="549.1254166666666" y2="5" style="visibility: inherit;" fill="rgb(0, 0, 0)" stroke="rgb(204, 204, 204)" stroke-width="1px"></line><line x1="686.4067708333333" y1="0" x2="686.4067708333333" y2="5" style="visibility: inherit;" fill="rgb(0, 0, 0)" stroke="rgb(204, 204, 204)" stroke-width="1px"></line><line x1="823.688125" y1="0" x2="823.688125" y2="5" style="visibility: inherit;" fill="rgb(0, 0, 0)" stroke="rgb(204, 204, 204)" stroke-width="1px"></line><line x1="960.9694791666667" y1="0" x2="960.9694791666667" y2="5" style="visibility: inherit;" fill="rgb(0, 0, 0)" stroke="rgb(204, 204, 204)" stroke-width="1px"></line><line x1="1098.2508333333333" y1="0" x2="1098.2508333333333" y2="5" style="visibility: inherit;" fill="rgb(0, 0, 0)" stroke="rgb(204, 204, 204)" stroke-width="1px"></line><line x1="1235.5321875" y1="0" x2="1235.5321875" y2="5" style="visibility: inherit;" fill="rgb(0, 0, 0)" stroke="rgb(204, 204, 204)" stroke-width="1px"></line><line x1="1372.8135416666667" y1="0" x2="1372.8135416666667" y2="5" style="visibility: inherit;" fill="rgb(0, 0, 0)" stroke="rgb(204, 204, 204)" stroke-width="1px"></line><line x1="1510.0948958333333" y1="0" x2="1510.0948958333333" y2="5" style="visibility: inherit;" fill="rgb(0, 0, 0)" stroke="rgb(204, 204, 204)" stroke-width="1px"></line><line x1="1647.37625" y1="0" x2="1647.37625" y2="5" style="visibility: inherit;" fill="rgb(0, 0, 0)" stroke="rgb(204, 204, 204)" stroke-width="1px"></line></g><g transform="translate(0, 8)"><text x="0" y="0" dx="0em" dy="0.95em" style="text-anchor: middle; visibility: hidden; font-family: Roboto, sans-serif; font-size: 12px; font-weight: 200;" fill="rgb(33, 33, 33)" stroke="none" stroke-width="1px">-100k</text><text x="137.28135416666666" y="0" dx="0em" dy="0.95em" style="text-anchor: middle; visibility: inherit; font-family: Roboto, sans-serif; font-size: 12px; font-weight: 200;" fill="rgb(33, 33, 33)" stroke="none" stroke-width="1px">0</text><text x="274.5627083333333" y="0" dx="0em" dy="0.95em" style="text-anchor: middle; visibility: inherit; font-family: Roboto, sans-serif; font-size: 12px; font-weight: 200;" fill="rgb(33, 33, 33)" stroke="none" stroke-width="1px">100k</text><text x="411.8440625" y="0" dx="0em" dy="0.95em" style="text-anchor: middle; visibility: inherit; font-family: Roboto, sans-serif; font-size: 12px; font-weight: 200;" fill="rgb(33, 33, 33)" stroke="none" stroke-width="1px">200k</text><text x="549.1254166666666" y="0" dx="0em" dy="0.95em" style="text-anchor: middle; visibility: inherit; font-family: Roboto, sans-serif; font-size: 12px; font-weight: 200;" fill="rgb(33, 33, 33)" stroke="none" stroke-width="1px">300k</text><text x="686.4067708333333" y="0" dx="0em" dy="0.95em" style="text-anchor: middle; visibility: inherit; font-family: Roboto, sans-serif; font-size: 12px; font-weight: 200;" fill="rgb(33, 33, 33)" stroke="none" stroke-width="1px">400k</text><text x="823.688125" y="0" dx="0em" dy="0.95em" style="text-anchor: middle; visibility: inherit; font-family: Roboto, sans-serif; font-size: 12px; font-weight: 200;" fill="rgb(33, 33, 33)" stroke="none" stroke-width="1px">500k</text><text x="960.9694791666667" y="0" dx="0em" dy="0.95em" style="text-anchor: middle; visibility: inherit; font-family: Roboto, sans-serif; font-size: 12px; font-weight: 200;" fill="rgb(33, 33, 33)" stroke="none" stroke-width="1px">600k</text><text x="1098.2508333333333" y="0" dx="0em" dy="0.95em" style="text-anchor: middle; visibility: inherit; font-family: Roboto, sans-serif; font-size: 12px; font-weight: 200;" fill="rgb(33, 33, 33)" stroke="none" stroke-width="1px">700k</text><text x="1235.5321875" y="0" dx="0em" dy="0.95em" style="text-anchor: middle; visibility: inherit; font-family: Roboto, sans-serif; font-size: 12px; font-weight: 200;" fill="rgb(33, 33, 33)" stroke="none" stroke-width="1px">800k</text><text x="1372.8135416666667" y="0" dx="0em" dy="0.95em" style="text-anchor: middle; visibility: inherit; font-family: Roboto, sans-serif; font-size: 12px; font-weight: 200;" fill="rgb(33, 33, 33)" stroke="none" stroke-width="1px">900k</text><text x="1510.0948958333333" y="0" dx="0em" dy="0.95em" style="text-anchor: middle; visibility: inherit; font-family: Roboto, sans-serif; font-size: 12px; font-weight: 200;" fill="rgb(33, 33, 33)" stroke="none" stroke-width="1px">1M</text><text x="1647.37625" y="0" dx="0em" dy="0.95em" style="text-anchor: middle; visibility: hidden; font-family: Roboto, sans-serif; font-size: 12px; font-weight: 200;" fill="rgb(33, 33, 33)" stroke="none" stroke-width="1px">1.1M</text></g><line x1="0" y1="0" x2="1647.37625" y2="0" fill="rgb(0, 0, 0)" stroke="rgb(204, 204, 204)" stroke-width="1px"></line></g></g></g></g></svg>